<?xml version="1.0" encoding="UTF-8" standalone="no"?>
<svg width="18px" height="14px" viewBox="0 0 18 14" version="1.1" xmlns="http://www.w3.org/2000/svg" xmlns:xlink="http://www.w3.org/1999/xlink">
    <path d="M3.6 2.6C4.9 1 6.8 0 9 0 12.5 0 15.4 2.6 15.9 6L13.9 6C13.4 3.7 11.4 2 9 2 7.4 2 5.9 2.8 5 4L3.6 2.6 3.6 2.6ZM15 9L18 6 12 6 15 9ZM14.4 11.4C13.1 13 11.2 14 9 14 5.5 14 2.6 11.4 2.1 8L4.1 8C4.6 10.3 6.6 12 9 12 10.6 12 12.1 11.2 13 10L14.4 11.4 14.4 11.4ZM3 5L0 8 6 8 3 5Z" style="fill:#828A99;opacity:0.7"/>
</svg>