<svg width="73px" height="72px" viewBox="62 0 73 72" version="1.1" xmlns="http://www.w3.org/2000/svg" xmlns:xlink="http://www.w3.org/1999/xlink">
  <defs>
    <rect id="path-1" x="3.55271368e-15" y="0" width="43" height="50" rx="3.40909091"></rect>
    <mask id="mask-2" maskContentUnits="userSpaceOnUse" maskUnits="objectBoundingBox" x="0" y="0" width="43" height="50" fill="white">
      <use xlink:href="#path-1"></use>
    </mask>
  </defs>
  <g id="Group-3-Copy-23" stroke="none" stroke-width="1" fill="none" fill-rule="evenodd" transform="translate(62.000000, 0.000000)">
    <rect id="Rectangle-183" x="0" y="0" width="72" height="72"></rect>
    <g id="Group-4" transform="translate(14.000000, 11.000000)">
      <use id="Rectangle-3-Copy-3" stroke="#6E8FB0" mask="url(#mask-2)" stroke-width="4" xlink:href="#path-1"></use>
      <ellipse id="Oval-2" fill="#6E8FB0" cx="11.3157895" cy="11.3636364" rx="3.39473684" ry="3.40909091"></ellipse>
      <rect id="Rectangle-4" fill="#6E8FB0" x="7.92105263" y="20.4545455" width="27.1578947" height="2.27272727" rx="0.568181818"></rect>
      <rect id="Rectangle-4-Copy-4" fill="#6E8FB0" x="18.1052632" y="10.2272727" width="6.78947368" height="2.27272727" rx="0.568181818"></rect>
      <rect id="Rectangle-4-Copy-5" fill="#6E8FB0" x="27.1578947" y="10.2272727" width="5.65789474" height="2.27272727" rx="0.568181818"></rect>
      <rect id="Rectangle-4-Copy" fill="#6E8FB0" x="7.92105263" y="26.1363636" width="27.1578947" height="2.27272727" rx="0.568181818"></rect>
      <path d="M7.92105263,32.3916869 C7.92105263,32.0749488 8.18414628,31.8181818 8.49675068,31.8181818 L22.5032493,31.8181818 C22.8211986,31.8181818 23.0789474,32.0788925 23.0789474,32.3916869 L23.0789474,33.517404 C23.0789474,33.8341421 22.8158537,34.0909091 22.5032493,34.0909091 L8.49675068,34.0909091 C8.17880143,34.0909091 7.92105263,33.8301984 7.92105263,33.517404 L7.92105263,32.3916869 Z" id="Rectangle-4-Copy-2" fill="#6E8FB0"></path>
      <rect id="Rectangle-4-Copy-3" fill="#6E8FB0" x="7.92105263" y="37.5" width="15.8421053" height="2.27272727" rx="0.568181818"></rect>
    </g>
    <polygon id="Star" fill="#6E8FB0" points="46 54.3000003 44.9049587 54.9138184 44.0531929 53.9916563 42.8220665 54.2370457 42.2969528 53.0968073 41.0502525 52.9497475 40.9031927 51.7030472 39.7629543 51.1779335 40.0083437 49.9468071 39.0861816 49.0950413 39.6999997 48 39.0861816 46.9049587 40.0083437 46.0531929 39.7629543 44.8220665 40.9031927 44.2969528 41.0502525 43.0502525 42.2969528 42.9031927 42.8220665 41.7629543 44.0531929 42.0083437 44.9049587 41.0861816 46 41.6999997 47.0950413 41.0861816 47.9468071 42.0083437 49.1779335 41.7629543 49.7030472 42.9031927 50.9497475 43.0502525 51.0968073 44.2969528 52.2370457 44.8220665 51.9916563 46.0531929 52.9138184 46.9049587 52.3000003 48 52.9138184 49.0950413 51.9916563 49.9468071 52.2370457 51.1779335 51.0968073 51.7030472 50.9497475 52.9497475 49.7030472 53.0968073 49.1779335 54.2370457 47.9468071 53.9916563 47.0950413 54.9138184"></polygon>
    <path d="M43.2415322,48.0302776 C42.9575145,47.7546134 42.4970309,47.7546134 42.2130133,48.0302776 C41.9289956,48.3059418 41.9289956,48.7528818 42.2130133,49.028546 L44.0311951,50.7932518 C44.3152127,51.0689161 44.7756964,51.0689161 45.059714,50.7932518 L49.7869867,46.2050166 C50.0710044,45.9293523 50.0710044,45.4824124 49.7869867,45.2067482 C49.5029691,44.9310839 49.0424855,44.9310839 48.7584678,45.2067482 L44.5454545,49.2958493 L43.2415322,48.0302776 Z" id="Path-2" fill="#FFFFFF" fill-rule="nonzero"></path>
    <polygon id="Rectangle-2" fill="#6E8FB0" points="44 53 48 53 48 58 45.930013 57.0178571 44 58"></polygon>
  </g>
</svg>
