<svg width="72px" height="72px" viewBox="35 0 72 72" version="1.1" xmlns="http://www.w3.org/2000/svg" xmlns:xlink="http://www.w3.org/1999/xlink">
  <g id="devAPI" stroke="none" stroke-width="1" fill="none" fill-rule="evenodd" transform="translate(35.000000, 0.000000)">
    <rect id="Rectangle-183" x="0" y="0" width="72" height="72"></rect>
    <path d="M11,17.9836062 C11,16.8880908 11.8890643,16 12.9909141,16 L59.0090859,16 C60.1086374,16 61,16.8915398 61,17.9836062 L61,54.0163938 C61,55.1119092 60.1109357,56 59.0090859,56 L12.9909141,56 C11.8913626,56 11,55.1084602 11,54.0163938 L11,17.9836062 Z M18.5657895,27.3333333 C20.5641882,27.3333333 22.1842105,25.6917107 22.1842105,23.6666667 C22.1842105,21.6416226 20.5641882,20 18.5657895,20 C16.5673907,20 14.9473684,21.6416226 14.9473684,23.6666667 C14.9473684,25.6917107 16.5673907,27.3333333 18.5657895,27.3333333 Z M14.2894737,31.9951909 L14.2894737,52.0048091 C14.2894737,52.365092 14.5870546,52.6666667 14.9541393,52.6666667 L57.0458607,52.6666667 C57.4100645,52.6666667 57.7105263,52.3703429 57.7105263,52.0048091 L57.7105263,31.9951909 C57.7105263,31.634908 57.4129454,31.3333333 57.0458607,31.3333333 L14.9541393,31.3333333 C14.5899355,31.3333333 14.2894737,31.6296571 14.2894737,31.9951909 Z M24.8157895,20.996926 L24.8157895,22.3364073 C24.8157895,22.50973 24.9659786,22.6666667 25.1512463,22.6666667 L42.9013852,22.6666667 C43.0885629,22.6666667 43.2368421,22.5188045 43.2368421,22.3364073 L43.2368421,20.996926 C43.2368421,20.8236033 43.086653,20.6666667 42.9013852,20.6666667 L25.1512463,20.6666667 C24.9640687,20.6666667 24.8157895,20.8145288 24.8157895,20.996926 Z M24.8157895,24.996926 L24.8157895,26.3364073 C24.8157895,26.50973 24.9620018,26.6666667 25.1423639,26.6666667 L35.0155308,26.6666667 C35.193302,26.6666667 35.3421053,26.5188045 35.3421053,26.3364073 L35.3421053,24.996926 C35.3421053,24.8236033 35.1958929,24.6666667 35.0155308,24.6666667 L25.1423639,24.6666667 C24.9645928,24.6666667 24.8157895,24.8145288 24.8157895,24.996926 Z" id="Rectangle-151" fill="#7495B4"></path>
  </g>
</svg>
