<svg width="72px" height="72px" viewBox="54 0 72 72" version="1.1" xmlns="http://www.w3.org/2000/svg" xmlns:xlink="http://www.w3.org/1999/xlink">
  <g id="devWeb" stroke="none" stroke-width="1" fill="none" fill-rule="evenodd" transform="translate(54.000000, 0.000000)">
    <rect id="Rectangle-188-Copy-4" x="0" y="0" width="72" height="72" rx="2.4"></rect>
    <g id="web" transform="translate(10.000000, 10.000000)" fill="#6E8FB0">
      <path d="M1.67741935,49.5962216 C1.67741935,49.8224051 1.82575745,50 2.00659927,50 L49.9934007,50 C50.1712387,50 50.3225806,49.8189619 50.3225806,49.5962216 L50.3225806,2.40377837 C50.3225806,2.1775949 50.1742426,2 49.9934007,2 L2.00659927,2 C1.82876134,2 1.67741935,2.18103806 1.67741935,2.40377837 L1.67741935,49.5962216 Z M2.00659927,0 L49.9934007,0 C51.1016149,0 52,1.07415777 52,2.40377837 L52,49.5962216 C52,50.9237918 51.0974426,52 49.9934007,52 L2.00659927,52 C0.898385094,52 0,50.9258422 0,49.5962216 L0,2.40377837 C0,1.07620823 0.902557373,0 2.00659927,0 Z" id="Rectangle-752-Copy-3" fill-rule="nonzero"></path>
      <path d="M20,24.7482117 C20.3766835,24.5574621 20.7443928,24.3667153 21.103139,24.1759657 C21.4618852,23.985216 21.8251103,23.7610886 22.1928251,23.5035765 C22.56054,23.2460645 22.9506706,22.921795 23.3632287,22.5307582 C23.7757868,22.1397215 24.2242128,21.6294738 24.7085202,21 L29.4977578,21 L29.4977578,37.1945637 L32,37.1945637 L32,41 L21.2376682,41 L21.2376682,37.1945637 L23.9282511,37.1945637 L23.9282511,26.5793991 L21.2376682,27.9241774 L20,24.7482117 Z" id="1"></path>
      <path d="M21.5,8 C20.6715729,8 20,7.32842712 20,6.5 C20,5.67157288 20.6715729,5 21.5,5 C22.3284271,5 23,5.67157288 23,6.5 C23,7.32842712 22.3284271,8 21.5,8 Z M31.5,8 C30.6715729,8 30,7.32842712 30,6.5 C30,5.67157288 30.6715729,5 31.5,5 C32.3284271,5 33,5.67157288 33,6.5 C33,7.32842712 32.3284271,8 31.5,8 Z" id="Combined-Shape"></path>
      <rect id="Rectangle-214" x="1" y="11" width="50" height="2"></rect>
    </g>
  </g>
</svg>
