<svg width="73px" height="72px" viewBox="54 0 73 72" version="1.1" xmlns="http://www.w3.org/2000/svg" xmlns:xlink="http://www.w3.org/1999/xlink">
  <defs>
    <path d="M12,12 C18.6274286,12 24,14.0784091 24,16.6376705 L24,18.8569886 C24,21.57125 18.6274286,23.7729545 12,23.7729545 C5.37257143,23.7729545 -8.8817842e-15,21.57125 -8.8817842e-15,18.8569886 L-8.8817842e-15,16.6376705 C-8.8817842e-15,14.0784091 5.37257143,12 12,12 Z M23.5491429,23.4928977 C23.8422857,23.0560795 24,23.2938636 24,23.489375 L24,27.6409091 C24,30.7426705 18.6274286,33.2578977 12,33.2578977 C5.37257143,33.2578977 -8.8817842e-15,30.7444318 -8.8817842e-15,27.6409091 L-8.8817842e-15,23.489375 C-8.8817842e-15,23.2938636 0.156,23.0560795 0.449142857,23.4928977 C1.872,25.6153409 6.50571429,27.1741477 12,27.1741477 C17.4942857,27.1741477 22.1262857,25.6153409 23.5491429,23.4928977 Z M23.5302857,32.5040341 C23.8354286,31.9932386 24,32.26625 24,32.518125 L24,36.044375 C24,39.4596591 18.6274286,43 12,43 C5.37257143,43 -8.8817842e-15,39.4596591 -8.8817842e-15,36.0426136 L-8.8817842e-15,32.5163636 C-8.8817842e-15,32.26625 0.162857143,31.9932386 0.468,32.5040341 C1.91485714,34.9047727 6.52971429,36.6626136 12,36.6626136 C17.4702857,36.6626136 22.0851429,34.9047727 23.5302857,32.5040341 Z" id="path-1"></path>
    <mask id="mask-2" maskContentUnits="userSpaceOnUse" maskUnits="objectBoundingBox" x="0" y="0" width="24" height="31" fill="white">
      <use xlink:href="#path-1"></use>
    </mask>
    <path d="M40.5,0 C47.9558571,0 54,2.28233902 54,5.0927107 L54,7.52978456 C54,10.5103646 47.9558571,12.9280966 40.5,12.9280966 C33.0441429,12.9280966 27,10.5103646 27,7.52978456 L27,5.0927107 C27,2.28233902 33.0441429,0 40.5,0 Z M53.4927857,21.5788944 C53.8225714,21.0992164 54,21.3603314 54,21.575026 L54,26.1339015 C54,29.5400024 47.9558571,32.3020194 40.5,32.3020194 C33.0441429,32.3020194 27,29.5419366 27,26.1339015 L27,21.575026 C27,21.3603314 27.1755,21.0992164 27.5052857,21.5788944 C29.106,23.9095881 34.3189286,25.6213423 40.5,25.6213423 C46.6810714,25.6213423 51.8920714,23.9095881 53.4927857,21.5788944 Z M53.4927857,11.7247277 C53.8225714,11.2450497 54,11.5061648 54,11.7208594 L54,16.2797348 C54,19.6858357 47.9558571,22.4478527 40.5,22.4478527 C33.0441429,22.4478527 27,19.6877699 27,16.2797348 L27,11.7208594 C27,11.5061648 27.1755,11.2450497 27.5052857,11.7247277 C29.106,14.0554214 34.3189286,15.7671757 40.5,15.7671757 C46.6810714,15.7671757 51.8920714,14.0554214 53.4927857,11.7247277 Z M53.4715714,31.474188 C53.8148571,30.9132741 54,31.2130729 54,31.4896615 L54,35.361901 C54,39.1122869 47.9558571,43 40.5,43 C33.0441429,43 27,39.1122869 27,35.3599669 L27,31.4877273 C27,31.2130729 27.1832143,30.9132741 27.5265,31.474188 C29.1542143,34.110483 34.3459286,36.0408002 40.5,36.0408002 C46.6540714,36.0408002 51.8457857,34.110483 53.4715714,31.474188 Z" id="path-3"></path>
    <mask id="mask-4" maskContentUnits="userSpaceOnUse" maskUnits="objectBoundingBox" x="0" y="0" width="27" height="43" fill="white">
      <use xlink:href="#path-3"></use>
    </mask>
  </defs>
  <g id="devShare" stroke="none" stroke-width="1" fill="none" fill-rule="evenodd" transform="translate(54.333333, 0.000000)">
    <rect id="Rectangle-183" x="0" y="0" width="72" height="72"></rect>
    <g id="Group-31" transform="translate(9.000000, 15.000000)" stroke="#6E8FB0" stroke-linecap="round" stroke-linejoin="round">
      <use id="Path" mask="url(#mask-2)" stroke-width="2.91599977" xlink:href="#path-1"></use>
      <use id="Path" mask="url(#mask-4)" stroke-width="3.23999983" xlink:href="#path-3"></use>
    </g>
  </g>
</svg>
