<svg width="73px" height="72px" viewBox="54 0 73 72" version="1.1" xmlns="http://www.w3.org/2000/svg" xmlns:xlink="http://www.w3.org/1999/xlink">
  <defs>
    <circle id="path-1" cx="25" cy="25" r="22"></circle>
    <mask id="mask-2" maskContentUnits="userSpaceOnUse" maskUnits="objectBoundingBox" x="0" y="0" width="44" height="44" fill="white">
      <use xlink:href="#path-1"></use>
    </mask>
  </defs>
  <g id="Group-2" stroke="none" stroke-width="1" fill="none" fill-rule="evenodd" transform="translate(54.666667, 0.000000)">
    <rect id="Rectangle-183" x="0" y="0" width="72" height="72"></rect>
    <g id="Group" transform="translate(11.000000, 11.000000)">
      <use id="Oval" stroke="#6E8FB0" mask="url(#mask-2)" stroke-width="4" xlink:href="#path-1"></use>
      <path d="M24,0.30065012 C24,0.134605644 24.1312256,0 24.2951069,0 L25.7048931,0 C25.8678761,0 26,0.133087158 26,0.30065012 L26,4 L24,4 L24,0.30065012 Z M29.525882,0.695911313 C29.5632338,0.534122546 29.7213758,0.43248617 29.8810568,0.469351441 L31.2547103,0.786484339 C31.4135161,0.823147544 31.5123156,0.982545088 31.4746221,1.14581342 L30.6424494,4.7503492 L28.6937093,4.3004471 L29.525882,0.695911313 Z M34.8254779,2.31197934 C34.898267,2.16273955 35.075219,2.09928231 35.2225146,2.17112314 L36.489622,2.78913275 C36.6361102,2.86057981 36.6965208,3.03811704 36.623066,3.18872163 L35.0013778,6.51367528 L33.2037897,5.63693298 L34.8254779,2.31197934 Z M39.632555,5.06791262 C39.7370502,4.93887182 39.9237417,4.91684653 40.0511014,5.01998037 L41.1467111,5.90718759 C41.2733727,6.00975614 41.2922977,6.19633252 41.1868469,6.3265534 L38.8587706,9.20148822 L37.3044787,7.94284744 L39.632555,5.06791262 Z M43.6734466,8.81315306 C43.8024874,8.70865789 43.9896786,8.72592925 44.0928124,8.85328894 L44.9800196,9.94889861 C45.0825882,10.0755602 45.0623083,10.2619942 44.9320874,10.367445 L42.0571526,12.6955213 L40.7985118,11.1412294 L43.6734466,8.81315306 Z M46.8112784,13.376934 C46.9605182,13.3041449 47.1390264,13.3630824 47.2108673,13.510378 L47.8288769,14.7774854 C47.9003239,14.9239736 47.8386253,15.1010673 47.6880207,15.1745221 L44.363067,16.7962103 L43.4863247,14.9986222 L46.8112784,13.376934 Z M48.8541866,18.5253779 C49.0159753,18.488026 49.1766504,18.5856086 49.2135157,18.7452897 L49.5306486,20.1189432 C49.5673118,20.2777489 49.467357,20.4364246 49.3040887,20.474118 L45.6995529,21.3062907 L45.2496508,19.3575506 L48.8541866,18.5253779 Z M49.6993499,24 C49.8653944,24 50,24.1312256 50,24.2951069 L50,25.7048931 C50,25.8678761 49.8669128,26 49.6993499,26 L46,26 L46,24 L49.6993499,24 Z M49.3040887,29.525882 C49.4658775,29.5632338 49.5675138,29.7213758 49.5306486,29.8810568 L49.2135157,31.2547103 C49.1768525,31.4135161 49.0174549,31.5123156 48.8541866,31.4746221 L45.2496508,30.6424494 L45.6995529,28.6937093 L49.3040887,29.525882 Z M47.6880207,34.8254779 C47.8372605,34.898267 47.9007177,35.075219 47.8288769,35.2225146 L47.2108673,36.489622 C47.1394202,36.6361102 46.961883,36.6965208 46.8112784,36.623066 L43.4863247,35.0013778 L44.363067,33.2037897 L47.6880207,34.8254779 Z M44.9320874,39.632555 C45.0611282,39.7370502 45.0831535,39.9237417 44.9800196,40.0511014 L44.0928124,41.1467111 C43.9902439,41.2733727 43.8036675,41.2922977 43.6734466,41.1868469 L40.7985118,38.8587706 L42.0571526,37.3044787 L44.9320874,39.632555 Z M41.1868469,43.6734466 C41.2913421,43.8024874 41.2740708,43.9896786 41.1467111,44.0928124 L40.0511014,44.9800196 C39.9244398,45.0825882 39.7380058,45.0623083 39.632555,44.9320874 L37.3044787,42.0571526 L38.8587706,40.7985118 L41.1868469,43.6734466 Z M36.623066,46.8112784 C36.6958551,46.9605182 36.6369176,47.1390264 36.489622,47.2108673 L35.2225146,47.8288769 C35.0760264,47.9003239 34.8989327,47.8386253 34.8254779,47.6880207 L33.2037897,44.363067 L35.0013778,43.4863247 L36.623066,46.8112784 Z M31.4746221,48.8541866 C31.511974,49.0159753 31.4143914,49.1766504 31.2547103,49.2135157 L29.8810568,49.5306486 C29.7222511,49.5673118 29.5635754,49.467357 29.525882,49.3040887 L28.6937093,45.6995529 L30.6424494,45.2496508 L31.4746221,48.8541866 Z M26,49.6993499 C26,49.8653944 25.8687744,50 25.7048931,50 L24.2951069,50 C24.1321239,50 24,49.8669128 24,49.6993499 L24,46 L26,46 L26,49.6993499 Z M20.474118,49.3040887 C20.4367662,49.4658775 20.2786242,49.5675138 20.1189432,49.5306486 L18.7452897,49.2135157 C18.5864839,49.1768525 18.4876844,49.0174549 18.5253779,48.8541866 L19.3575506,45.2496508 L21.3062907,45.6995529 L20.474118,49.3040887 Z M15.1745221,47.6880207 C15.101733,47.8372605 14.924781,47.9007177 14.7774854,47.8288769 L13.510378,47.2108673 C13.3638898,47.1394202 13.3034792,46.961883 13.376934,46.8112784 L14.9986222,43.4863247 L16.7962103,44.363067 L15.1745221,47.6880207 Z M10.367445,44.9320874 C10.2629498,45.0611282 10.0762583,45.0831535 9.94889861,44.9800196 L8.85328894,44.0928124 C8.72662733,43.9902439 8.70770228,43.8036675 8.81315306,43.6734466 L11.1412294,40.7985118 L12.6955213,42.0571526 L10.367445,44.9320874 Z M6.3265534,41.1868469 C6.1975126,41.2913421 6.01032143,41.2740708 5.90718759,41.1467111 L5.01998037,40.0511014 C4.91741182,39.9244398 4.93769174,39.7380058 5.06791262,39.632555 L7.94284744,37.3044787 L9.20148822,38.8587706 L6.3265534,41.1868469 Z M3.18872163,36.623066 C3.03948184,36.6958551 2.86097358,36.6369176 2.78913275,36.489622 L2.17112314,35.2225146 C2.09967608,35.0760264 2.16137474,34.8989327 2.31197934,34.8254779 L5.63693298,33.2037897 L6.51367528,35.0013778 L3.18872163,36.623066 Z M1.14581342,31.4746221 C0.984024654,31.511974 0.823349611,31.4143914 0.786484339,31.2547103 L0.469351441,29.8810568 C0.432688236,29.7222511 0.532642979,29.5635754 0.695911313,29.525882 L4.3004471,28.6937093 L4.7503492,30.6424494 L1.14581342,31.4746221 Z M0.30065012,26 C0.134605644,26 1.97938856e-16,25.8687744 1.67834349e-16,25.7048931 L-9.1139179e-17,24.2951069 C-1.21078677e-16,24.1321239 0.133087158,24 0.30065012,24 L4,24 L4,26 L0.30065012,26 Z M0.695911313,20.474118 C0.534122546,20.4367662 0.43248617,20.2786242 0.469351441,20.1189432 L0.786484339,18.7452897 C0.823147544,18.5864839 0.982545088,18.4876844 1.14581342,18.5253779 L4.7503492,19.3575506 L4.3004471,21.3062907 L0.695911313,20.474118 Z M2.31197934,15.1745221 C2.16273955,15.101733 2.09928231,14.924781 2.17112314,14.7774854 L2.78913275,13.510378 C2.86057981,13.3638898 3.03811704,13.3034792 3.18872163,13.376934 L6.51367528,14.9986222 L5.63693298,16.7962103 L2.31197934,15.1745221 Z M5.06791262,10.367445 C4.93887182,10.2629498 4.91684653,10.0762583 5.01998037,9.94889861 L5.90718759,8.85328894 C6.00975614,8.72662733 6.19633252,8.70770228 6.3265534,8.81315306 L9.20148822,11.1412294 L7.94284744,12.6955213 L5.06791262,10.367445 Z M8.81315306,6.3265534 C8.70865789,6.1975126 8.72592925,6.01032143 8.85328894,5.90718759 L9.94889861,5.01998037 C10.0755602,4.91741182 10.2619942,4.93769174 10.367445,5.06791262 L12.6955213,7.94284744 L11.1412294,9.20148822 L8.81315306,6.3265534 Z M13.376934,3.18872163 C13.3041449,3.03948184 13.3630824,2.86097358 13.510378,2.78913275 L14.7774854,2.17112314 C14.9239736,2.09967608 15.1010673,2.16137474 15.1745221,2.31197934 L16.7962103,5.63693298 L14.9986222,6.51367528 L13.376934,3.18872163 Z M18.5253779,1.14581342 C18.488026,0.984024654 18.5856086,0.823349611 18.7452897,0.786484339 L20.1189432,0.469351441 C20.2777489,0.432688236 20.4364246,0.532642979 20.474118,0.695911313 L21.3062907,4.3004471 L19.3575506,4.7503492 L18.5253779,1.14581342 Z" id="Rectangle" fill="#6E8FB0"></path>
      <rect id="Rectangle-2" fill="#6E8FB0" x="24" y="24" width="22" height="2" rx="1"></rect>
      <path d="M25,25 L11.5,8" id="Path-10" stroke="#6E8FB0" stroke-width="2"></path>
      <path d="M25,42 L11.5,25" id="Path-10-Copy" stroke="#6E8FB0" stroke-width="2" transform="translate(18.250000, 33.500000) scale(1, -1) translate(-18.250000, -33.500000) "></path>
      <path d="M15.172129,18.1125161 C13.8034164,20.0619493 13,22.4371507 13,25 C13,27.5628493 13.8034164,29.9380507 15.172129,31.8874839 L16.5171462,30.2979181 C15.5557371,28.7617882 15,26.9457938 15,25 C15,23.0542062 15.5557371,21.2382118 16.5171462,19.7020819 L15.172129,18.1125161 Z M20.5866741,13.8375852 C21.9527183,13.2970387 23.4416706,13 25,13 C30.5915183,13 35.2898192,16.8243184 36.6219475,22 L34.5421977,22 C33.2679341,17.942893 29.4776418,15 25,15 C23.9134611,15 22.8673955,15.1732872 21.8879325,15.4937323 L20.5866741,13.8375852 Z M36.6219475,28 C35.2898192,33.1756816 30.5915183,37 25,37 C23.4416706,37 21.9527183,36.7029613 20.5866741,36.1624148 L21.8879325,34.5062677 C22.8673955,34.8267128 23.9134611,35 25,35 C29.4776418,35 33.2679341,32.057107 34.5421977,28 L36.6219475,28 Z" id="Combined-Shape" fill="#6E8FB0"></path>
    </g>
  </g>
</svg>
