<svg width="72px" height="72px" viewBox="34 0 72 72" version="1.1" xmlns="http://www.w3.org/2000/svg" xmlns:xlink="http://www.w3.org/1999/xlink">
  <g id="devShare" stroke="none" stroke-width="1" fill="none" fill-rule="evenodd" transform="translate(34.000000, 0.000000)">
    <rect id="Rectangle-183" x="0" y="0" width="72" height="72"></rect>
    <path d="M52.2086778,51.4954215 L51.815625,51.4457576 C51.815625,51.4457566 48.3850929,48.0274079 44.2359375,45.2433333 C39.8122142,42.4177314 37.2013113,42.3148347 34.956409,42.3217528 C35.0684041,43.5735629 35.5404507,46.053038 36.9091182,50.9459873 C38.0190237,55.1783955 40.2388348,58 30.9896221,58 C29.7564073,58 27.4955248,46.2435708 26.7761156,42.3245455 L22.5439189,42.3245455 C18.609375,42.3245455 15,39.3047226 15,35.47662 L15,33.9330303 L15,31.6597436 C15,27.831641 18.609375,24.8118182 22.5439189,24.8118182 L34.2369932,24.8118182 C36.65625,24.8118182 39.3323902,25.0251142 44.2359375,21.8930303 C48.3850929,19.1089557 51.815625,15.6906071 51.815625,15.6906061 L52.2088649,15.6409184 C52.7136927,15.2397593 53.3528113,15 54.046875,15 C55.6778409,15 57,16.3217028 57,17.9450691 L57,49.1912945 C57,50.8178113 55.6745222,52.1363636 54.046875,52.1363636 C53.3519518,52.1363636 52.7130908,51.8964153 52.2086778,51.4954215 Z" id="Shape-Copy-15" fill="#7495B4"></path>
  </g>
</svg>
