<svg width="72px" height="72px" viewBox="54 0 72 72" version="1.1" xmlns="http://www.w3.org/2000/svg" xmlns:xlink="http://www.w3.org/1999/xlink">
  <defs>
    <circle id="path-1" cx="36" cy="36" r="25"></circle>
    <mask id="mask-2" maskContentUnits="userSpaceOnUse" maskUnits="objectBoundingBox" x="0" y="0" width="50" height="50" fill="white">
      <use xlink:href="#path-1"></use>
    </mask>
  </defs>
  <g id="Group-3-Copy-16" stroke="none" stroke-width="1" fill="none" fill-rule="evenodd" transform="translate(54.000000, 0.000000)">
    <rect id="Rectangle-183" x="0" y="0" width="72" height="72"></rect>
    <use id="Oval" stroke="#6E8FB0" mask="url(#mask-2)" stroke-width="4" xlink:href="#path-1"></use>
    <path d="M22.1857341,39.6929023 C22.3095575,39.552822 22.473621,39.4827829 22.6779296,39.4827829 C22.8389,39.4827829 22.9766514,39.5299831 23.091188,39.6243851 C23.2057246,39.7187871 23.3218073,39.8817042 23.4394395,40.1131413 C23.6932774,40.6064677 24.0306911,40.9810247 24.4516905,41.2368236 C24.87269,41.4926225 25.361785,41.62052 25.9189902,41.62052 C26.4761954,41.62052 26.9730292,41.5002354 27.4095066,41.2596627 C27.845984,41.0190899 28.1849454,40.6825976 28.426401,40.2501757 C28.6678566,39.8177538 28.7885825,39.3244347 28.7885825,38.7702038 C28.7885825,38.2403347 28.6709521,37.7683319 28.4356877,37.3541813 C28.2004233,36.9400307 27.8753918,36.6157191 27.4605835,36.3812368 C27.0457752,36.1467545 26.5721579,36.0295151 26.0397174,36.0295151 C25.3091595,36.0295151 24.6745742,36.2670391 24.1359425,36.7420942 C23.8016194,37.0466167 23.5617152,37.2445533 23.4162228,37.33591 C23.2707303,37.4272668 23.1236922,37.4729445 22.9751042,37.4729445 C22.7088839,37.4729445 22.5107695,37.3754987 22.380755,37.1806044 C22.2507404,36.98571 22.1981163,36.7116438 22.222881,36.3583978 L22.6314961,31.2424455 C22.6624519,30.9013804 22.7800823,30.6501531 22.9843909,30.4887561 C23.1886995,30.3273592 23.4889666,30.246662 23.8852014,30.246662 L29.0950439,30.246662 C29.3612641,30.246662 29.5702129,30.3090882 29.7218966,30.4339424 C29.8735802,30.5587966 29.9494209,30.7338944 29.9494209,30.959241 C29.9494209,31.1784972 29.875128,31.3475047 29.7265399,31.4662684 C29.5779519,31.5850322 29.3674553,31.6444132 29.0950439,31.6444132 L24.089509,31.6444132 L23.7366141,35.7097681 L23.8294812,35.7097681 C24.0399809,35.4052456 24.388229,35.1540183 24.8742357,34.9560787 C25.3602424,34.7581391 25.8694584,34.6591708 26.4018989,34.6591708 C27.1819862,34.6591708 27.8769345,34.8297008 28.4867646,35.170766 C29.0965947,35.5118312 29.5717598,35.9884017 29.912274,36.6004919 C30.2527883,37.2125821 30.4230429,37.9084056 30.4230429,38.6879831 C30.4230429,39.5162843 30.2342151,40.2577854 29.8565538,40.9125088 C29.4788925,41.5672321 28.9526511,42.0788222 28.2778137,42.4472944 C27.6029763,42.8157667 26.8383784,43 25.9839971,43 C25.2039099,43 24.5105094,42.8629669 23.9037749,42.5888967 C23.2970403,42.3148265 22.8280663,41.9661534 22.4968388,41.5428672 C22.1656113,41.1195809 22,40.6886881 22,40.2501757 C22,40.0187386 22.0619108,39.8329827 22.1857341,39.6929023 Z M34.3440019,39.3366128 C34.5761707,40.0735572 34.9104888,40.638438 35.3469662,41.031272 C35.7834436,41.424106 36.2957551,41.62052 36.8839162,41.62052 C37.4720772,41.62052 37.9843887,41.424106 38.4208661,41.031272 C38.8573435,40.638438 39.1916616,40.0735572 39.4238304,39.3366128 C39.6559993,38.5996684 39.7720819,37.7287471 39.7720819,36.7238229 L39.7720819,36.2944483 C39.7720819,35.2895241 39.6544515,34.4186029 39.4191871,33.6816585 C39.1839227,32.944714 38.8480568,32.3783107 38.4115794,31.9824315 C37.975102,31.5865522 37.4627905,31.3886156 36.8746295,31.3886156 C36.2864684,31.3886156 35.7757047,31.5865522 35.3423229,31.9824315 C34.9089411,32.3783107 34.5761707,32.944714 34.3440019,33.6816585 C34.1118331,34.4186029 33.9957504,35.2895241 33.9957504,36.2944483 L33.9957504,36.7238229 C33.9957504,37.7287471 34.1118331,38.5996684 34.3440019,39.3366128 Z M32.9045624,32.9736472 C33.2605546,32.0265823 33.7775094,31.2942167 34.4554424,30.7765285 C35.1333754,30.2588402 35.9428585,30 36.8839162,30 C37.8249738,30 38.634457,30.2588402 39.31239,30.7765285 C39.9903229,31.2942167 40.50573,32.0265823 40.8586266,32.9736472 C41.2115232,33.9207122 41.3879689,35.0245896 41.3879689,36.2853127 L41.3879689,36.7420942 C41.3879689,38.0028173 41.2099755,39.1036495 40.8539833,40.044624 C40.497991,40.9855985 39.9810362,41.7133963 39.3031032,42.2280394 C38.6251703,42.7426824 37.8156871,43 36.8746295,43 C35.9335718,43 35.1256364,42.7426824 34.450799,42.2280394 C33.7759616,41.7133963 33.2605546,40.9855985 32.9045624,40.044624 C32.5485702,39.1036495 32.3705767,38.0028173 32.3705767,36.7420942 L32.3705767,36.2853127 C32.3705767,35.0245896 32.5485702,33.9207122 32.9045624,32.9736472 Z M44.956033,39.3366128 C45.1882018,40.0735572 45.5225199,40.638438 45.9589973,41.031272 C46.3954747,41.424106 46.9077863,41.62052 47.4959473,41.62052 C48.0841083,41.62052 48.5964198,41.424106 49.0328972,41.031272 C49.4693746,40.638438 49.8036927,40.0735572 50.0358615,39.3366128 C50.2680304,38.5996684 50.384113,37.7287471 50.384113,36.7238229 L50.384113,36.2944483 C50.384113,35.2895241 50.2664826,34.4186029 50.0312182,33.6816585 C49.7959538,32.944714 49.4600879,32.3783107 49.0236105,31.9824315 C48.5871331,31.5865522 48.0748216,31.3886156 47.4866606,31.3886156 C46.8984996,31.3886156 46.3877358,31.5865522 45.954354,31.9824315 C45.5209722,32.3783107 45.1882018,32.944714 44.956033,33.6816585 C44.7238642,34.4186029 44.6077815,35.2895241 44.6077815,36.2944483 L44.6077815,36.7238229 C44.6077815,37.7287471 44.7238642,38.5996684 44.956033,39.3366128 Z M43.5165935,32.9736472 C43.8725857,32.0265823 44.3895405,31.2942167 45.0674735,30.7765285 C45.7454065,30.2588402 46.5548896,30 47.4959473,30 C48.4370049,30 49.2464881,30.2588402 49.9244211,30.7765285 C50.602354,31.2942167 51.1177611,32.0265823 51.4706577,32.9736472 C51.8235543,33.9207122 52,35.0245896 52,36.2853127 L52,36.7420942 C52,38.0028173 51.8220066,39.1036495 51.4660144,40.044624 C51.1100222,40.9855985 50.5930673,41.7133963 49.9151344,42.2280394 C49.2372014,42.7426824 48.4277182,43 47.4866606,43 C46.5456029,43 45.7376675,42.7426824 45.0628301,42.2280394 C44.3879928,41.7133963 43.8725857,40.9855985 43.5165935,40.044624 C43.1606013,39.1036495 42.9826079,38.0028173 42.9826079,36.7420942 L42.9826079,36.2853127 C42.9826079,35.0245896 43.1606013,33.9207122 43.5165935,32.9736472 Z" id="500" fill="#6E8FB0"></path>
  </g>
</svg>
