<svg width="72px" height="72px" viewBox="34 0 72 72" version="1.1" xmlns="http://www.w3.org/2000/svg" xmlns:xlink="http://www.w3.org/1999/xlink">
  <g id="devComm" stroke="none" stroke-width="1" fill="none" fill-rule="evenodd" transform="translate(34.000000, 0.000000)">
    <rect id="Rectangle-183" x="0" y="0" width="72" height="72"></rect>
    <g id="contact_us" transform="translate(11.000000, 11.000000)" fill="#7595B4">
      <path d="M5.75246905,22.2222222 C6.97056006,13.7064135 13.7064135,6.97056006 22.2222222,5.75246905 L22.2222222,1.39349365 C22.2222222,0.623888359 22.8379905,0 23.6097926,0 L26.3902074,0 C27.1565414,0 27.7777778,0.627746582 27.7777778,1.39349365 L27.7777778,5.75246905 C36.2935865,6.97056006 43.0294399,13.7064135 44.2475309,22.2222222 L48.6065063,22.2222222 C49.3761116,22.2222222 50,22.8379905 50,23.6097926 L50,26.3902074 C50,27.1565414 49.3722534,27.7777778 48.6065063,27.7777778 L44.2475309,27.7777778 C43.0294399,36.2935865 36.2935865,43.0294399 27.7777778,44.2475309 L27.7777778,48.6065063 C27.7777778,49.3722534 27.1565414,50 26.3902074,50 L23.6097926,50 C22.8379905,50 22.2222222,49.3761116 22.2222222,48.6065063 L22.2222222,44.2475309 C13.7064135,43.0294399 6.97056006,36.2935865 5.75246905,27.7777778 L1.39349365,27.7777778 C0.627746582,27.7777778 4.56541949e-13,27.1565414 4.56401176e-13,26.3902074 L4.55890422e-13,23.6097926 C4.55748644e-13,22.8379905 0.623888359,22.2222222 1.39349365,22.2222222 L5.75246905,22.2222222 Z M25,38.8888889 C32.6706215,38.8888889 38.8888889,32.6706215 38.8888889,25 C38.8888889,17.3293785 32.6706215,11.1111111 25,11.1111111 C17.3293785,11.1111111 11.1111111,17.3293785 11.1111111,25 C11.1111111,32.6706215 17.3293785,38.8888889 25,38.8888889 Z M25,30.5555556 C21.9317514,30.5555556 19.4444444,28.0682486 19.4444444,25 C19.4444444,21.9317514 21.9317514,19.4444444 25,19.4444444 C28.0682486,19.4444444 30.5555556,21.9317514 30.5555556,25 C30.5555556,28.0682486 28.0682486,30.5555556 25,30.5555556 Z" id="Combined-Shape"></path>
    </g>
  </g>
</svg>
