<svg width="56" height="56" viewBox="0 0 56 56" xmlns="http://www.w3.org/2000/svg"><title>About42</title><g fill="none" fill-rule="evenodd"><rect fill="#7393B5" fill-rule="nonzero" width="56" height="56" rx="28"/><path d="M25 34v4c0 1.067-.925 2-1.974 2C21.944 40 21 39.067 21 38v-4h-9.038C10.88 34 10 33.167 10 32.1c0-.7.44-1.303.71-1.77L19 16.933A1.92 1.92 0 0 1 20.658 16c.338 0 .677.1 1.015.267.609.4.947 1.033.947 1.666 0 .367-.101.7-.27 1L15.312 30H21v-3c0-1.067.944-2 2.026-2 1.05 0 1.974.933 1.974 2v3h1.038C27.12 30 28 30.967 28 32c0 1.067-.88 2-1.962 2H25zm18.205 2.373c.982 0 1.795.813 1.795 1.796C45 39.186 44.187 40 43.205 40h-11.41A1.807 1.807 0 0 1 30 38.203c0-.949.474-1.559.914-2 3.826-3.898 9.04-8.881 9.04-13.22 0-1.898-1.049-3.085-3.013-3.085-1.219 0-2.065.441-2.844 1.492-.474.644-1.117.983-1.76.983-.305 0-.61-.068-.881-.237a1.739 1.739 0 0 1-.88-1.526c0-.373.101-.712.304-1.085C32.27 17.186 34.2 16 37.381 16c4.504 0 6.705 3.05 6.705 6.203 0 6.644-6.975 12.509-8.838 14.17h7.957z" fill="#FFF"/></g></svg>
