<svg width="72px" height="72px" viewBox="54 0 72 72" version="1.1" xmlns="http://www.w3.org/2000/svg" xmlns:xlink="http://www.w3.org/1999/xlink">
  <defs>
    <rect id="path-1" x="0" y="0" width="54" height="54" rx="27"></rect>
    <mask id="mask-2" maskContentUnits="userSpaceOnUse" maskUnits="objectBoundingBox" x="0" y="0" width="54" height="54" fill="white">
      <use xlink:href="#path-1"></use>
    </mask>
  </defs>
  <g id="devWP" stroke="none" stroke-width="1" fill="none" fill-rule="evenodd" transform="translate(54.000000, 0.000000)">
    <rect id="Rectangle-188-Copy-3" x="0" y="0" width="72" height="72" rx="2.4"></rect>
    <g id="windows" transform="translate(8.000000, 8.000000)">
      <g id="hint_icon">
        <use id="Rectangle-643" stroke="#6E8FB0" mask="url(#mask-2)" stroke-width="4.23529412" xlink:href="#path-1"></use>
        <path d="M26.715197,15 C24.907077,15 23.380312,15.4014077 22.1404189,16.2056121 C20.1723127,17.4640044 19.1268856,19.6016046 19,22.6156348 L23.5609861,22.6156348 C23.5609861,21.7364269 23.8161365,20.8933318 24.323679,20.0766269 C24.8326006,19.2626998 25.6959745,18.8557363 26.9138005,18.8557363 C28.1523145,18.8557363 29.006034,19.1863074 29.4708215,19.8460605 C29.9383674,20.5085916 30.1714507,21.2405703 30.1714507,22.0433857 C30.1714507,22.7434185 29.8238945,23.3837263 29.4032411,23.9643091 C29.1729161,24.3032139 28.869494,24.6157285 28.4915956,24.9004641 C28.4915956,24.9004641 26.0187053,26.4977612 24.9332816,27.7811547 C24.3043703,28.5242451 24.2478235,29.6395752 24.1912766,31.2368723 C24.1885182,31.3507665 24.9497141,33.056402 25.3441628,33.056402 L28.1025457,33.056402 C28.4556187,33.056402 28.5977933,31.3243764 28.6019309,31.2063153 C28.6267563,30.6257325 28.6901991,30.3271074 28.7963969,29.9909805 C28.9950004,29.3562285 29.5384019,28.8034248 30.1466253,28.3256247 L31.4016895,27.4547505 C32.5353849,26.564431 33.4387553,25.8352302 33.8387208,25.2629811 C34.5200414,24.3240482 35,23.1656606 35,21.7905961 C34.9986208,19.5474354 34.2124817,17.8570784 32.6402034,16.7125803 C31.0679252,15.5708601 29.092923,15 26.715197,15 Z M26.5081359,34.3397955 C24.9907108,34.2911821 23.7384021,35.3870668 23.6904414,37.103814 C23.6438128,38.8177832 24.8335061,39.9525586 26.3522634,39.9983941 C27.9363007,40.0470075 29.1553033,38.9886245 29.2045963,37.2718774 C29.2498925,35.5551302 28.0935054,34.3884089 26.5081359,34.3397955 L26.5081359,34.3397955 Z" id="Shape" fill="#6E8FB0"></path>
      </g>
    </g>
  </g>
</svg>
