<svg width="72px" height="72px" viewBox="58 0 72 72" version="1.1" xmlns="http://www.w3.org/2000/svg" xmlns:xlink="http://www.w3.org/1999/xlink">
  <defs>
    <path d="M49.2352941,53.3877551 L59.0073214,53.3877551 C61.2033234,53.3877551 63,51.594191 63,49.3817175 L63,16.0060376 C63,13.7916644 61.2124169,12 59.0073214,12 L12.9926786,12 C10.7966766,12 9,13.7935641 9,16.0060376 L9,49.3817175 C9,51.5960907 10.7875831,53.3877551 12.9926786,53.3877551 L38.6470588,53.3877551 L49.2352941,64 L49.2352941,53.3877551 Z" id="path-1"></path>
    <mask id="mask-2" maskContentUnits="userSpaceOnUse" maskUnits="objectBoundingBox" x="0" y="0" width="54" height="52" fill="white">
      <use xlink:href="#path-1"></use>
    </mask>
  </defs>
  <g id="devGames" stroke="none" stroke-width="1" fill="none" fill-rule="evenodd" transform="translate(58.000000, 0.000000)">
    <rect id="Rectangle-188-Copy-4" x="0" y="0" width="72" height="72" rx="2.4"></rect>
    <use id="Rectangle-593-Copy" stroke="#6E8FB0" mask="url(#mask-2)" stroke-width="4.23529412" xlink:href="#path-1"></use>
    <g id="Group-29" transform="translate(19.000000, 21.000000)" fill="#6E8FB0">
      <path d="M12.125,13.0833333 C4.8125,13.0833333 4,17.2 4,19.575 C4,20.6833333 4.4875,21 6.4375,21 L17.975,21 C19.925,21 20.25,20.6833333 20.25,19.575 C20.25,17.3583333 19.4375,13.0833333 12.125,13.0833333 L12.125,13.0833333 Z M23.5,13.0833333 C26.75,13.0833333 26.75,8.49166667 26.75,8.49166667 C26.75,8.49166667 26.75,5.16666667 23.5,5.16666667 C20.25,5.16666667 20.25,8.49166667 20.25,8.49166667 C20.25,8.49166667 20.25,13.0833333 23.5,13.0833333 L23.5,13.0833333 Z M20.2499987,14.6666654 C21.8749981,16.7777757 21.8749981,18.3611078 21.8749981,19.9444411 L21.8749981,20.9999962 L27.8875,21 C29.675,21 30,20.6833333 30,19.8916667 C30,17.9916667 29.1875,14.6666667 22.6875,14.6666667 C22.2,14.6666667 21.8749981,14.6666654 20.2499987,14.6666654 Z M12.9375,11.5 C17,11.5 17,5.95833333 17,5.95833333 C17,5.95833333 17,2 12.9375,2 C8.875,2 8.875,5.95833333 8.875,5.95833333 C8.875,5.95833333 8.875,11.5 12.9375,11.5 L12.9375,11.5 Z" id="Shape-13"></path>
    </g>
  </g>
</svg>
