<svg width="73px" height="72px" viewBox="62 0 73 72" version="1.1" xmlns="http://www.w3.org/2000/svg" xmlns:xlink="http://www.w3.org/1999/xlink">
  <g id="devWeb" stroke="none" stroke-width="1" fill="none" fill-rule="evenodd" transform="translate(62.500000, 0.000000)">
    <rect id="Rectangle-188-Copy-4" x="0" y="0" width="72" height="72" rx="2.4"></rect>
    <g id="web" transform="translate(5.000000, 10.000000)" fill="#6E8FB0">
      <path d="M2,49.5962216 C2,49.8224051 2.17686465,50 2.39248374,50 L59.6075163,50 C59.8195538,50 60,49.8189619 60,49.5962216 L60,2.40377837 C60,2.1775949 59.8231354,2 59.6075163,2 L2.39248374,2 C2.18044621,2 2,2.18103806 2,2.40377837 L2,49.5962216 Z M2.39248374,0 L59.6075163,0 C60.9288485,0 62,1.07415777 62,2.40377837 L62,49.5962216 C62,50.9237918 60.9238739,52 59.6075163,52 L2.39248374,52 C1.07115146,52 0,50.9258422 0,49.5962216 L0,2.40377837 C0,1.07620823 1.0761261,0 2.39248374,0 Z" id="Rectangle-752-Copy-3" fill-rule="nonzero"></path>
      <rect id="Rectangle-214" x="1" y="11" width="60" height="2"></rect>
      <path d="M6.5,8 C5.67157288,8 5,7.32842712 5,6.5 C5,5.67157288 5.67157288,5 6.5,5 C7.32842712,5 8,5.67157288 8,6.5 C8,7.32842712 7.32842712,8 6.5,8 Z M11.5,8 C10.6715729,8 10,7.32842712 10,6.5 C10,5.67157288 10.6715729,5 11.5,5 C12.3284271,5 13,5.67157288 13,6.5 C13,7.32842712 12.3284271,8 11.5,8 Z M16.5,8 C15.6715729,8 15,7.32842712 15,6.5 C15,5.67157288 15.6715729,5 16.5,5 C17.3284271,5 18,5.67157288 18,6.5 C18,7.32842712 17.3284271,8 16.5,8 Z" id="Combined-Shape"></path>
      <rect id="Rectangle-Copy-2" x="16" y="25" width="6" height="3" rx="0.839999986"></rect>
      <rect id="Rectangle-Copy" x="25" y="25" width="21" height="3" rx="0.839999986"></rect>
      <rect id="Rectangle" x="16" y="31" width="25" height="3" rx="0.839999986"></rect>
    </g>
  </g>
</svg>
